/* XPM */
static char *result[] = {
/* columns rows colors chars-per-pixel */
"64 64 6 1 ",
"  c black",
". c #933100",
"X c #A64717",
"o c #9B9998",
"O c #DEDAD8",
"+ c None",
/* pixels */
"++++++++++++++++++++++++++++++++++++++++++++++++++++++++++++++++",
"++++++++++++++++++++++++++++++++++++++++++++++++++++++++++++++++",
"++++++++++++++++++++++++++++++++++++++++++++++++++++++++++++++++",
"++++++++++++++++++++++++++++++++++++++++++++++++++++++++++++++++",
"++++++++++++++++++++++++++++++++++++++++++++++++++++++++++++++++",
"++++++++++++++++++++++++++++++++++++++++++++++++++++++++++++++++",
"+++++++++++++++++  +++++++++++++++++++++++++++++++++++++++++++++",
"+++++++++++++++++  +++++++++++++++++++++++++++++++++++++++++++++",
"+++++++++++++++    +++++++++++++++++++++++++++++++++++++++++++++",
"+++++++++++++++    +++++++++++++++++++++++++++++++++++++++++++++",
"+++++++++++++  OO  +++++++++++++++++++++++++++++++++++++++++++++",
"+++++++++++++  OO  +++++++++++++++++++++++++++++++++++++++++++++",
"+++++++++++++  OO  +++++++++++++++++++++++++++++++++++++++++++++",
"+++++++++++++  OO  +++++++++++++++++++++++++++++++++++++++++++++",
"+++++++++++++  OO  ++++++++          +++++++++++++++++++++++++++",
"+++++++++++++  OO  ++++++++          +++++++++++++++++++++++++++",
"+++++++++++++  OO  ++++++  OOOOOOOOOO  +++++++++++++++++++++++++",
"+++++++++++++  OO  ++++++  OOOOOOOOOO  +++++++++++++++++++++++++",
"+++++++++++++  OO  ++++  OOOOOOoooooooo  +++++++++++++++++++++++",
"+++++++++++++  OO  ++++  OOOOOOoooooooo  +++++++++++++++++++++++",
"+++++++++++++  OO  ++  OOOOOOoooooooooooo  +++++++++++++++++++++",
"+++++++++++++  OO  ++  OOOOOOoooooooooooo  +++++++++++++++++++++",
"+++++++++++++  OO  ++  OO  oooooooooo  oo  +++++++++++++++++++++",
"+++++++++++++  OO  ++  OO  oooooooooo  oo  +++++++++++++++++++++",
"+++++++++++++  OO  ++  OO    oooooo    oo  +++++++++++++++++++++",
"+++++++++++++  OO  ++  OO    oooooo    oo  +++++++++++++++++++++",
"+++++++++++++  OO  ++  OO    oooooo    oo  +++++++++++++++++++++",
"+++++++++++++  OO  ++  OO    oooooo    oo  +++++++++++++++++++++",
"+++++++++++++  OOoo  ++  OOOOoo  oooooo  +++++++++++++++++++++++",
"+++++++++++++  OOoo  ++  OOOOoo  oooooo  +++++++++++++++++++++++",
"+++++++++++++  OOoo  ++  OOoooooooooooo  +++++++++++++++++++++++",
"+++++++++++++  OOoo  ++  OOoooooooooooo  +++++++++++++++++++++++",
"+++++++++++++  OOoo  ++    oo  oo  oo    +++++++++++++++++++++++",
"+++++++++++++  OOoo  ++    oo  oo  oo    +++++++++++++++++++++++",
"+++++++++++++  OOoo  ++++              +++++++++++++++++++++++++",
"+++++++++++++  OOoo  ++++              +++++++++++++++++++++++++",
"+++++++++++++++  OOoo      OO      OO          +++++++++++++++++",
"+++++++++++++++  OOoo      OO      OO          +++++++++++++++++",
"+++++++++++++++  OO    ..    OO  OO    OOoooooo  +++++++++++++++",
"+++++++++++++++  OO    ..    OO  OO    OOoooooo  +++++++++++++++",
"+++++++++++++++      ....  OO        OOXXXX....oo  +++++++++++++",
"+++++++++++++++      ....  OO        OOXXXX....oo  +++++++++++++",
"+++++++++++++++    XX..  oo  OO  OO  OOXXOOoo..oo  +++++++++++++",
"+++++++++++++++    XX..  oo  OO  OO  OOXXOOoo..oo  +++++++++++++",
"+++++++++++++    ..XX  oooo          OOXXOOoo..oo  +++++++++++++",
"+++++++++++++    ..XX  oooo          OOXXOOoo..oo  +++++++++++++",
"+++++++++++++  XX..                  OOXXXX....oo  +++++++++++++",
"+++++++++++++  XX..                  OOXXXX....oo  +++++++++++++",
"+++++++++++++++    ++++++  oo  OO  oo  OOoooooo  +++++++++++++++",
"+++++++++++++++    ++++++  oo  OO  oo  OOoooooo  +++++++++++++++",
"+++++++++++++++++++++++  oooooo  oooooo        +++++++++++++++++",
"+++++++++++++++++++++++  oooooo  oooooo        +++++++++++++++++",
"+++++++++++++++++++++  oooooo  ++  oooooo  +++++++++++++++++++++",
"+++++++++++++++++++++  oooooo  ++  oooooo  +++++++++++++++++++++",
"+++++++++++++++++++  oooooooo  ++  oooooooo  +++++++++++++++++++",
"+++++++++++++++++++  oooooooo  ++  oooooooo  +++++++++++++++++++",
"+++++++++++++++++++            ++            +++++++++++++++++++",
"+++++++++++++++++++            ++            +++++++++++++++++++",
"++++++++++++++++++++++++++++++++++++++++++++++++++++++++++++++++",
"++++++++++++++++++++++++++++++++++++++++++++++++++++++++++++++++",
"++++++++++++++++++++++++++++++++++++++++++++++++++++++++++++++++",
"++++++++++++++++++++++++++++++++++++++++++++++++++++++++++++++++",
"++++++++++++++++++++++++++++++++++++++++++++++++++++++++++++++++",
"++++++++++++++++++++++++++++++++++++++++++++++++++++++++++++++++"
};
