/* XPM */
static char *a9568a7b8bae43bae3c682082a1bffbdiaGrUFqEkdJT4ttz[] = {
/* columns rows colors chars-per-pixel */
"64 64 238 2 ",
"   c None",
".  c #140101",
"X  c #1D0101",
"o  c #0D0100",
"O  c #240002",
"+  c #2B0101",
"@  c #26000A",
"#  c #330101",
"$  c #3D0102",
"%  c #3A0707",
"&  c #2C1215",
"*  c #450002",
"=  c #4C0101",
"-  c #480A05",
";  c #540201",
":  c #5C0200",
">  c #590904",
",  c #4E1300",
"<  c #591501",
"1  c #450F14",
"2  c #4A1415",
"3  c #561913",
"4  c #660801",
"5  c #651805",
"6  c #771C02",
"7  c #691210",
"8  c #582716",
"9  c #522505",
"0  c #682707",
"q  c #7C2A0A",
"w  c #65340A",
"e  c #7E3509",
"r  c #783406",
"t  c #6A251C",
"y  c #773717",
"u  c #71351B",
"i  c #572626",
"p  c #592C33",
"a  c #553838",
"s  c #4E2A27",
"d  c #6B352A",
"f  c #76342D",
"g  c #6E3E3F",
"h  c #6B3A34",
"j  c #693030",
"k  c #794314",
"l  c #6B413D",
"z  c #60413D",
"x  c #754738",
"c  c #7C4B2E",
"v  c #723849",
"b  c #6E4844",
"n  c #754648",
"m  c #755756",
"M  c #6E4E55",
"N  c #7F6379",
"B  c #831500",
"V  c #882D08",
"C  c #833807",
"Z  c #822C15",
"A  c #853519",
"S  c #943919",
"D  c #9A3900",
"F  c #943327",
"G  c #9D411E",
"H  c #A44717",
"J  c #AB4F09",
"K  c #864A37",
"L  c #8C5838",
"P  c #995739",
"I  c #935026",
"U  c #A24528",
"Y  c #AD582A",
"T  c #B34F29",
"R  c #94693C",
"E  c #AC6638",
"W  c #A9642D",
"Q  c #CE6116",
"!  c #CE6D32",
"~  c #D87735",
"^  c #ED7827",
"/  c #E97C3D",
"(  c #FC7D3C",
")  c #FE7E33",
"_  c #E16F23",
"`  c #835749",
"'  c #985B46",
"]  c #885A59",
"[  c #9B5D58",
"{  c #924A43",
"}  c #86625B",
"|  c #91635A",
" . c #9F6A43",
".. c #BA7451",
"X. c #A77651",
"o. c #8C6763",
"O. c #996768",
"+. c #8B7566",
"@. c #94756A",
"#. c #936976",
"$. c #947675",
"%. c #8E7276",
"&. c #A7756B",
"*. c #A37C77",
"=. c #B47F78",
"-. c #C97745",
";. c #F77C41",
":. c #FF8227",
">. c #FF8C3B",
",. c #F88631",
"<. c #FF943B",
"1. c #B88853",
"2. c #9D8378",
"3. c #898574",
"4. c #B18578",
"5. c #BB9872",
"6. c #A88776",
"7. c #DB9D43",
"8. c #C58858",
"9. c #D68B5B",
"0. c #C9965A",
"q. c #D99758",
"w. c #C18C4F",
"e. c #ED8946",
"r. c #FE8844",
"t. c #FF9D46",
"y. c #FE9749",
"u. c #FF9A55",
"i. c #FF9D5C",
"p. c #FB9855",
"a. c #F68D53",
"s. c #FFAD4C",
"d. c #FFA449",
"f. c #FFA454",
"g. c #FFAA55",
"h. c #FEA45C",
"j. c #FDAA5C",
"k. c #F6A15E",
"l. c #FFB857",
"z. c #F0AB51",
"x. c #CA9861",
"c. c #D79864",
"v. c #FF9E67",
"b. c #D6A76E",
"n. c #D7AE73",
"m. c #E4A666",
"M. c #FFA465",
"N. c #FFAB64",
"B. c #FFAB69",
"V. c #FAA76D",
"C. c #FFB36B",
"Z. c #FEBB6A",
"A. c #FFB463",
"S. c #EBB977",
"D. c #FDBC76",
"F. c #FBB776",
"G. c #F1AB6F",
"H. c #FFC05A",
"J. c #FCC56E",
"K. c #FFC474",
"L. c #FECC74",
"P. c #FFC47C",
"I. c #FFCA7D",
"U. c #F4C77D",
"Y. c #FFD37C",
"T. c #FFDD7D",
"R. c #EFCB7E",
"E. c #B57D80",
"W. c #AC8684",
"Q. c #A6948B",
"!. c #B39288",
"~. c #A89590",
"^. c #B28685",
"/. c #B7A197",
"(. c #ADA298",
"). c #A39CA0",
"_. c #BBA9A3",
"`. c #BEB3AA",
"'. c #BDB9B2",
"]. c #C69D8E",
"[. c #FFBD83",
"{. c #FFBF8D",
"}. c #C7B5AC",
"|. c #D8B1A8",
" X c #CCB0AF",
".X c #DDC09A",
"XX c #FFC583",
"oX c #FFCB83",
"OX c #FFC48A",
"+X c #FFCC8A",
"@X c #FFD384",
"#X c #FFDB85",
"$X c #FFD38A",
"%X c #FFDC8C",
"&X c #F3DD8E",
"*X c #FFC996",
"=X c #FFD292",
"-X c #FFDB93",
";X c #FFDC9A",
":X c #FFD79F",
">X c #E6C884",
",X c #FFE38E",
"<X c #FFEA8B",
"1X c #FFE485",
"2X c #FFE494",
"3X c #FCEA94",
"4X c #FEE39B",
"5X c #FFEC9C",
"6X c #FFF39D",
"7X c #FCF597",
"8X c #F4F892",
"9X c #D3C6B6",
"0X c #D1C2B0",
"qX c #FBD9A5",
"wX c #EFCAB4",
"eX c #FFE5A2",
"rX c #FFE0AA",
"tX c #FFFBA2",
"yX c #FFF8AC",
"uX c #FFE6B3",
"iX c #FDF8B6",
"pX c #DBD7C4",
"aX c #F8DBC5",
"sX c #EFCFD3",
"dX c #FFE7CC",
"fX c #FDFBCB",
"gX c #EDE4DE",
"hX c #FDEAD7",
"jX c #FEFCD4",
"kX c #FBF8D9",
"lX c #EFF5DF",
"zX c #EADDE3",
"xX c #FFFEE4",
"cX c #FDFDEC",
"vX c #FFF4E5",
"bX c #FFFFF7",
"nX c #FFFDFE",
"mX c #F9FAF6",
/* pixels */
"                                                                                                                                ",
"                                                i                                                                               ",
"                                                d O.                                                                            ",
"                                    (.o O     X   [ *                                                                           ",
"                                    _.> v.f + t lXdX9.1                                                                         ",
"                                    ~.# H.~ 5 3 gXjXm.+                                                                         ",
"                                      ] ! l.~ * gXfX7.#                                                                         ",
"                                        + ^ _ % sXfX7.$                                                                         ",
"                                      # O ; = 7 U.6Xq.#                                                                         ",
"                                  0X[ m &.+.j * K.tXc.* $.                                                                      ",
"                                  # ' bXmXnX|.- m.4Xm.= . o.                                                                    ",
"                                X   iXoX$XOX@XF.+ -.OXX n.1.+                                                                   ",
"                              } ].qX4XD.oXJ.I.$X..G.P...#XD.E N                                                                 ",
"                            b -   =XK.Y.oX@X$X@X8X%XoXyXK.,X%X< 6.                                                              ",
"                            *.7 Y.oXoX@X@X+X$XI.+XI.P.P.oXOXoXyXw s                                                             ",
"                            b > iXiX1.$ ; , > = + q.yXOXI.+XXX8Xr h                                                             ",
"                              !.P L R | O.&.4.&.#.K X.2X$XP.XX4Xe g                                                             ",
"                                * O 6.nXnXhXaXdXnX@., S.[.Y.+X3Xe g                                                             ",
"                            } 3 xXhXdXdXcXh X 3 wXbX|.O c.<XK.3Xe g                                                             ",
"                            ` 5   jXhXdXhX9Xx X wXbXaX. 0.4XK.4Xe g                                                             ",
"                            $.- !.wXvXjXdXbXwX` vX9XO.r m.;XOX,Xe g                                                             ",
"                            Q.+ # wXkXaXaXaXkXxXcXx : v.K.@XP.2Xe g                                                             ",
"                            b =     E.3 xXcXmXxX% G t.,.Z.$XoX4Xe g                                                             ",
"                                L { ; + &.] m ` H ^ s.A.{.oXoX<Xe g                                                             ",
"                                2 8 K n + ; < 4 d.y.u.$XoX+XI.,Xr b                                                             ",
"                                        + ! l.y.>.r.p.oX$XXXoX3Xy l                                                             ",
"                                          K D <.( h.P.I.oXXXoX-XA n                                                             ",
"                                          v < K.M.D.@XI.oXXX+X4XZ b                                                             ",
"                                          n r 5X$XoXoXI.P.XXoX5XA h                                                             ",
"                                          n q ,XoXoXoXoXP.XXoX4X< d                                                             ",
"                                          n Z <XoXXXoXXXoXoXI.$Xb.X.$.                                                          ",
"                                          x V 4XXXXXoXXXoXoXI.P.tXb.X                                                           ",
"                                          n q ,XOXXXoXI.I.I.oXoX1X9.#                                                           ",
"                                          a > 5XOXXXoXoXoXP.XXoX3X8.#                                                           ",
"                                          W.5.@XoXoXP.P.XXP.XXoX4X8.#                                                           ",
"                                        @   xX[.oXoXP.P.P.oXoXoX%Xc.i                                                           ",
"                                        O  XjXP.XXXXI.oXI.I.oXXXI.4X  #                                                         ",
"                                        X }.jXXXoXP.oXoXoXI.I.XXP.@XqXn.' p l g g l l l l z a                                   ",
"                                        o..XeXP.oXoXP.B.P.oXI.oX+XP.P.tXx.0 e C C e C C C A 0 P                                 ",
"                                    2.#   uXC.I.oXoXF.e.C.oXoXoXOXP.oXJ.#X2X<X2X2X2X2X2X2X4XiX1.O + O M                         ",
"                                    /.- kXrXK.XXXXoXP.P.oXoXoXI.@XoXoXoXoXoXoXI.oX$X+X+XI.I.oX$XV.% 0.c.O                       ",
"                                    _.= qX=XoXI.@XI.XXoXoXP.oX$XN.B.@XoXoXP.P.@XC.i.P.oXoXoXoX-XXXO m.7XR O.                    ",
"                                    `.= OXoX+XP.A.I.$XXXP.oXoX+Xy.r.D.oXP.oXoX@XA.u.K.oXXXXXoX=X[.u E R.6X+                     ",
"                                    '.* I.Y.oXP.( N.oX+XP.P.I.+Xh.( r.P.I.oXoXXXoXI.L.P.XXoXoXP.OXyXw 0 eX;                     ",
"                                    '.= I.Y.I.XXP.u.u.P.oXXXXXI.L.h.( D.$XXXoXXXXXoXoXP.oX$Xk.h.+X8Xu f ;X;                     ",
"                                    }.= P.oXI.oX$XC.j.I.+XXXoXI.Y.I.N.P.@XP.@XoXXXoXXXoXK.N.( u.=X2Xy K 7X$                     ",
"                                    }.= $X$XI.I.P.@X@XoXoXoXXXP.oX@XoXoXI.oXD.P.I.oXOX$XZ.) r.B.@X5Xy t >Xt                     ",
"                                    /.$ 2X;XXXoXI.oX+XOXP.P.oXoXXXXXoXXX@XI.;.C.Y.XXOX=XC.) Z.$XI.2X' @ $                       ",
"                                        4 / Y.&X=XM.t.oXeX%XP.I.L.I.I.$Xg.p.C.U.OX@XuX$XK.C.oXoXOX,Xk p                         ",
"                                        b S / L.[.h.h.@Xx.c.$XoXXX+XoX;XC.k.$X=X$XP.8.G.#X@XoXXXoX1X0 O.                        ",
"                                          n 4 h.:.C.:X#X* u eXK.oXP.I.OXoXI.oXOX#XD.#  .eXoXI.I.L.,Xr n                         ",
"                                            _.* p.l.B.f.: ` kX*XXX+XoXw H j.y.P.5X[.% =.jXI.I.oXI.OX6 p                         ",
"                                                I A T s.4 ] cXoXP.$X$X% V h.>.i.D.i.$ ^.xXJ.I.=XF.U &.                          ",
"                                                1 X r ,.: } xXL.L.oXoX< U g.<.>.>.:.$ !.cXP.I.-XS.X                             ",
"                                                1 Q a.# # +.xXoXP.=X$X, H A.t.d.h.y.# 4.cXP.I.@XF.%                             ",
"                                                1 J h.-.; ` uXXXL.+XoXd * 4 F t 0 5 . 5.fXK.+X#XF.*                             ",
"                                                # J l.l.; c 6XoX[.-X,X, i m O 6 S q S W x.oX+XT.Z.*                             ",
"                                                i H i.h.5 G %XoX=XP.P.=  X  # ! N.s.Z.6 - @X@X%XF.#                             ",
"                                                  @.4 y.f.Y 9 XX3X0.= sX      v V d.g.V 8 -X+XeX*XX                             ",
"                                                  3.= u.l.Y # D.6Xw.O         a 4 g.d.V 8 Y.2Xx.K                               ",
"                                                  o.4 M.l.T $ P.tXq.#         a B l.s.Z i 5X6XI O                               ",
"                                                  2.; h.g.Y % P.6Xw.$         M B s.g.A t oX6XE &                               ",
"                                                      * # | zX; X n             ~.+ + 0XgX# X |                                 ",
"                                                      Q.%.pXnXW.#.`.              $.%.nXnX*.).                                  "
};
