/* XPM */
static char *_9e107f72e79474ed2f5f109b9390d23emMzsEWSNRjckBRk[] = {
/* columns rows colors chars-per-pixel */
"64 64 157 2 ",
"   c None",
".  c #207300",
"X  c #6F5500",
"o  c #566F00",
"O  c #5D6900",
"+  c #547000",
"@  c #796500",
"#  c #DD0000",
"$  c #DE1500",
"%  c #DF1C00",
"&  c #E30000",
"*  c #EA0103",
"=  c #E20A00",
"-  c #E7000D",
";  c #EC000B",
":  c #F00006",
">  c #FF0005",
",  c #F0000F",
"<  c #E41B00",
"1  c #E6170D",
"2  c #EF0010",
"3  c #EC0D10",
"4  c #F20014",
"5  c #FA0015",
"6  c #F10D15",
"7  c #F6001B",
"8  c #FA001D",
"9  c #F11F16",
"0  c #F61D1E",
"q  c #DE2500",
"w  c #DF2E00",
"e  c #DF3B00",
"r  c #C72712",
"t  c #C03711",
"y  c #E42000",
"u  c #E92509",
"i  c #E23500",
"p  c #E33A01",
"a  c #E93D07",
"s  c #E93D0B",
"d  c #F53100",
"f  c #F62D10",
"g  c #F7241F",
"h  c #F42C1A",
"j  c #EE3912",
"k  c #F03617",
"l  c #F43A17",
"z  c #F4351D",
"x  c #F3381B",
"c  c #F50023",
"v  c #FC0124",
"b  c #FC0B25",
"n  c #FF0129",
"m  c #FF0C29",
"M  c #F71523",
"N  c #FD1126",
"B  c #FC1D25",
"V  c #FE132B",
"C  c #F7182B",
"Z  c #FE1C2C",
"A  c #FF0035",
"S  c #F50D39",
"D  c #EF1230",
"F  c #FF153B",
"G  c #F71C3E",
"H  c #FA2A24",
"J  c #FE2028",
"K  c #EF3623",
"L  c #FC3027",
"P  c #FB3E27",
"I  c #FC3528",
"U  c #FF2534",
"Y  c #FD2934",
"T  c #F5273C",
"R  c #FA323D",
"E  c #FF3838",
"W  c #894D00",
"Q  c #8F4D0B",
"!  c #9E4A08",
"~  c #A44D0F",
"^  c #906002",
"/  c #E74300",
"(  c #E94507",
")  c #E54C00",
"_  c #E94E06",
"`  c #EC450F",
"'  c #E94909",
"]  c #E65400",
"[  c #E95406",
"{  c #EC570D",
"}  c #EE4A12",
"|  c #F44416",
" . c #F3481A",
".. c #EE5810",
"X. c #F3551D",
"o. c #F35E1C",
"O. c #FB4626",
"+. c #F94D25",
"@. c #FB4D28",
"#. c #FA5125",
"$. c #F75C21",
"%. c #F85921",
"&. c #FD4031",
"*. c #FF573C",
"=. c #FF025F",
"-. c #FF1052",
";. c #FF2240",
":. c #FC2F4B",
">. c #FA3A45",
",. c #FF3E4E",
"<. c #FF2755",
"1. c #FF3C5C",
"2. c #FF2063",
"3. c #FF4E46",
"4. c #FF424C",
"5. c #FA5D4D",
"6. c #FE4F54",
"7. c #FF4C59",
"8. c #FF5455",
"9. c #FF535D",
"0. c #FF5A5E",
"q. c #FE6C4D",
"w. c #F87241",
"e. c #FF6E55",
"r. c #FF615D",
"t. c #FF6E5D",
"y. c #FE7A53",
"u. c #FF775D",
"i. c #FF4D61",
"p. c #FF5364",
"a. c #FF5C64",
"s. c #FF536A",
"d. c #FF5C6C",
"f. c #FF6365",
"g. c #FF6369",
"h. c #FF696E",
"j. c #008300",
"k. c #008B00",
"l. c #009400",
"z. c #009C00",
"x. c #00A300",
"c. c #00AC00",
"v. c #00B600",
"b. c #00BB00",
"n. c #00BA00",
"m. c #00B900",
"M. c #00BC00",
"N. c #00BD00",
"B. c #00BE00",
"V. c #00BF00",
"C. c #408902",
"Z. c #00C000",
"A. c #00C300",
"S. c #00C200",
"D. c #00C400",
"F. c #00C900",
"G. c #00CF00",
/* pixels */
"                                                                                                                                ",
"                                                                                                                                ",
"                                                                                                                                ",
"                                                                                                                                ",
"                                                                                                                                ",
"                                                                                                                                ",
"                                                                                                                                ",
"                                                                                                                                ",
"                                                                                                                                ",
"                                                                                                                                ",
"                                                                                                                                ",
"                                                                                                                                ",
"                                                                                                                                ",
"                                                                  v.                                                            ",
"                                                                v.v.                                                            ",
"                                                  k.l.k.    M.v.v.v.                                                            ",
"                                                  k.k.l.k.z.M.n.v.v.                                                            ",
"                                            v.v.A.  k.j.l.v.n.M.n.v.      M.M.M.M.n.v.v.                                        ",
"                                      v.v.v.n.n.n.A.v.x.l.v.n.c.v.n.v.M.v.z.x.x.z.v.n.v.v.v.                                    ",
"                                      n.A.M.A.D.A.v.n.F.v.M.c.j.z.A.M.c.l.z.l.l.l.x.G.A.v.                                      ",
"                                            x.O o l.v.v.A.A.l.l.x.n.F.c.j.+                                                     ",
"                                            M n n ~ Q . v.x.l.O ! W ^ @ t v v n n n                                             ",
"                                        n v v v v n A K r X C.2.2.<.-.=.1.,.&.) ; n v                                           ",
"                                    v v X.i 7 b v v X.d > ;.p.u.5.p.f.y.6.a.8.1 T E | c v                                       ",
"                                    v n 7 ; v v v b 7 * R p.p.) & i.r.p - a.9.p.a.3.p * m                                       ",
"                                  b V H v m v v v v v v 6.g.0.G R 9.p.G >.9.7.i.a.9.S 7 v v                                     ",
"                                  7 g ] ; n v v O.H v 8 V 4.9.h.p.e.5.p.a.7.r.q.4.g.d.F 8 v                                     ",
"                                  & & ; 7 m v v { < v b 8 8 U 4.s.w.$ :.a.p.t.e D i.*. .7 v                                     ",
"                                  & & 2 ; 7 v b 4 4 b v L ..: 8 R c c 0.a.4.V * C n f w 4 m                                     ",
"                                  & & & # & P b v m v v B y ; b 5 8 F Y Z 8 5 N v 8 v 7 b v                                     ",
"                                  & & & & # { b v b v v v v v v v @.l 4 8 v v b v v b b v                                       ",
"                                    & & & & 4 b v v #.} 7 b v v v  .q 7 b v v v %.j 8 v v                                       ",
"                                    & & & ; n N v v z % 4 b v v N 8 4 v b v v v k = v b                                         ",
"                                    & & & a * v m b v 8 v v b v v v Z #.7 v v b 8 v b v                                         ",
"                                      & & _ = & v b v b o.6 v $.9 v B ) & n v v v b v v                                         ",
"                                        & & & & & v v v p & n s & v v 4 7 b v v v v v                                           ",
"                                        & & & ' / 7 m v 8 v b 7 v N v n N v v v b v v                                           ",
"                                          & & & & 4 b v n m v b v v %.h v v L X.7 v v                                           ",
"                                          & & & & & v v o.3 v v v n ` & v v H i ; m                                             ",
"                                          & # ( ( & v b u & v v b b 7 7 b b v 7 v                                               ",
"                                            # # & # ; V v v #.x 8 v b N v v b b v                                               ",
"                                              # # & & 7 m n | % 7 v v v #.` 7 b                                                 ",
"                                              # # < [ # v Z 7 7 v I H v h $ 7 b                                                 ",
"                                                # # & & ; 7 b m v X.i 7 v v b                                                   ",
"                                                  # # & ) * v v b 7 ; v b b v                                                   ",
"                                                  # # & i ; n v v m m v v v                                                     ",
"                                                    # # # & 2 J +.7 v v v                                                       ",
"                                                    # # # # # 0 [ * m m b                                                       ",
"                                                        # # # & , v ; &                                                         ",
"                                                          # # # & & #                                                           ",
"                                                                                                                                ",
"                                                                                                                                ",
"                                                                                                                                ",
"                                                                                                                                ",
"                                                                                                                                ",
"                                                                                                                                ",
"                                                                                                                                ",
"                                                                                                                                ",
"                                                                                                                                ",
"                                                                                                                                ",
"                                                                                                                                ",
"                                                                                                                                ",
"                                                                                                                                ",
"                                                                                                                                "
};
