/* XPM */
static char *_7d64c036e9f48f1ac52a3c8b9f59f11gu2p7uNpWNCTi7Hx[] = {
/* columns rows colors chars-per-pixel */
"64 64 238 2 ",
"   c None",
".  c #140101",
"X  c #1D0101",
"o  c #0D0100",
"O  c #240002",
"+  c #2B0101",
"@  c #26000A",
"#  c #330101",
"$  c #3D0102",
"%  c #3A0707",
"&  c #2C1215",
"*  c #450002",
"=  c #4C0101",
"-  c #480A05",
";  c #540201",
":  c #5C0200",
">  c #590904",
",  c #4E1300",
"<  c #591501",
"1  c #450F14",
"2  c #4A1415",
"3  c #561913",
"4  c #660801",
"5  c #651805",
"6  c #771C02",
"7  c #691210",
"8  c #582716",
"9  c #522505",
"0  c #682707",
"q  c #7C2A0A",
"w  c #65340A",
"e  c #7E3509",
"r  c #783406",
"t  c #6A251C",
"y  c #773717",
"u  c #71351B",
"i  c #572626",
"p  c #592C33",
"a  c #553838",
"s  c #4E2A27",
"d  c #6B352A",
"f  c #76342D",
"g  c #6E3E3F",
"h  c #6B3A34",
"j  c #693030",
"k  c #794314",
"l  c #6B413D",
"z  c #60413D",
"x  c #754738",
"c  c #7C4B2E",
"v  c #723849",
"b  c #6E4844",
"n  c #754648",
"m  c #755756",
"M  c #6E4E55",
"N  c #7F6379",
"B  c #831500",
"V  c #882D08",
"C  c #833807",
"Z  c #822C15",
"A  c #853519",
"S  c #943919",
"D  c #9A3900",
"F  c #943327",
"G  c #9D411E",
"H  c #A44717",
"J  c #AB4F09",
"K  c #864A37",
"L  c #8C5838",
"P  c #995739",
"I  c #935026",
"U  c #A24528",
"Y  c #AD582A",
"T  c #B34F29",
"R  c #94693C",
"E  c #AC6638",
"W  c #A9642D",
"Q  c #CE6116",
"!  c #CE6D32",
"~  c #D87735",
"^  c #ED7827",
"/  c #E97C3D",
"(  c #FC7D3C",
")  c #FE7E33",
"_  c #E16F23",
"`  c #835749",
"'  c #985B46",
"]  c #885A59",
"[  c #9B5D58",
"{  c #924A43",
"}  c #86625B",
"|  c #91635A",
" . c #9F6A43",
".. c #BA7451",
"X. c #A77651",
"o. c #8C6763",
"O. c #996768",
"+. c #8B7566",
"@. c #94756A",
"#. c #936976",
"$. c #947675",
"%. c #8E7276",
"&. c #A7756B",
"*. c #A37C77",
"=. c #B47F78",
"-. c #C97745",
";. c #F77C41",
":. c #FF8227",
">. c #FF8C3B",
",. c #F88631",
"<. c #FF943B",
"1. c #B88853",
"2. c #9D8378",
"3. c #898574",
"4. c #B18578",
"5. c #BB9872",
"6. c #A88776",
"7. c #DB9D43",
"8. c #C58858",
"9. c #D68B5B",
"0. c #C9965A",
"q. c #D99758",
"w. c #C18C4F",
"e. c #ED8946",
"r. c #FE8844",
"t. c #FF9D46",
"y. c #FE9749",
"u. c #FF9A55",
"i. c #FF9D5C",
"p. c #FB9855",
"a. c #F68D53",
"s. c #FFAD4C",
"d. c #FFA449",
"f. c #FFA454",
"g. c #FFAA55",
"h. c #FEA45C",
"j. c #FDAA5C",
"k. c #F6A15E",
"l. c #FFB857",
"z. c #F0AB51",
"x. c #CA9861",
"c. c #D79864",
"v. c #FF9E67",
"b. c #D6A76E",
"n. c #D7AE73",
"m. c #E4A666",
"M. c #FFA465",
"N. c #FFAB64",
"B. c #FFAB69",
"V. c #FAA76D",
"C. c #FFB36B",
"Z. c #FEBB6A",
"A. c #FFB463",
"S. c #EBB977",
"D. c #FDBC76",
"F. c #FBB776",
"G. c #F1AB6F",
"H. c #FFC05A",
"J. c #FCC56E",
"K. c #FFC474",
"L. c #FECC74",
"P. c #FFC47C",
"I. c #FFCA7D",
"U. c #F4C77D",
"Y. c #FFD37C",
"T. c #FFDD7D",
"R. c #EFCB7E",
"E. c #B57D80",
"W. c #AC8684",
"Q. c #A6948B",
"!. c #B39288",
"~. c #A89590",
"^. c #B28685",
"/. c #B7A197",
"(. c #ADA298",
"). c #A39CA0",
"_. c #BBA9A3",
"`. c #BEB3AA",
"'. c #BDB9B2",
"]. c #C69D8E",
"[. c #FFBD83",
"{. c #FFBF8D",
"}. c #C7B5AC",
"|. c #D8B1A8",
" X c #CCB0AF",
".X c #DDC09A",
"XX c #FFC583",
"oX c #FFCB83",
"OX c #FFC48A",
"+X c #FFCC8A",
"@X c #FFD384",
"#X c #FFDB85",
"$X c #FFD38A",
"%X c #FFDC8C",
"&X c #F3DD8E",
"*X c #FFC996",
"=X c #FFD292",
"-X c #FFDB93",
";X c #FFDC9A",
":X c #FFD79F",
">X c #E6C884",
",X c #FFE38E",
"<X c #FFEA8B",
"1X c #FFE485",
"2X c #FFE494",
"3X c #FCEA94",
"4X c #FEE39B",
"5X c #FFEC9C",
"6X c #FFF39D",
"7X c #FCF597",
"8X c #F4F892",
"9X c #D3C6B6",
"0X c #D1C2B0",
"qX c #FBD9A5",
"wX c #EFCAB4",
"eX c #FFE5A2",
"rX c #FFE0AA",
"tX c #FFFBA2",
"yX c #FFF8AC",
"uX c #FFE6B3",
"iX c #FDF8B6",
"pX c #DBD7C4",
"aX c #F8DBC5",
"sX c #EFCFD3",
"dX c #FFE7CC",
"fX c #FDFBCB",
"gX c #EDE4DE",
"hX c #FDEAD7",
"jX c #FEFCD4",
"kX c #FBF8D9",
"lX c #EFF5DF",
"zX c #EADDE3",
"xX c #FFFEE4",
"cX c #FDFDEC",
"vX c #FFF4E5",
"bX c #FFFFF7",
"nX c #FFFDFE",
"mX c #F9FAF6",
/* pixels */
"                                                                                                                                ",
"                                                                              i                                                 ",
"                                                                            O.d                                                 ",
"                                                                          * [   X     O o (.                                    ",
"                                                                        1 9.dXlXt + f v.> _.                                    ",
"                                                                        + m.jXgX3 5 ~ H.# ~.                                    ",
"                                                                        # 7.fXgX* ~ l.! ]                                       ",
"                                                                        $ 7.jXsX% _ ^ +                                         ",
"                                                                        # q.6XU.7 = ; @ #                                       ",
"                                                                      $.* c.tXK.* j +.&.m [ 0X                                  ",
"                                                                    o.. = m.4Xm.- |.nXmXbX' #                                   ",
"                                                                  + 1.n.X OX-.+ F.@XOX+X+XiX  X                                 ",
"                                                                N E D.#X..K.G...$XI.J.oXD.4XqX].}                               ",
"                                                              6.< %X<XK.yX+X%X8X@X$X@X+XY.K.=X  - b                             ",
"                                                            s w yXoXOXoXP.P.I.+XI.$X+X@X@XoXoXY.7 *.                            ",
"                                                            h r 8XXX+XI.OXyXq.+ = > , ; $ 1.iXiX> b                             ",
"                                                            g e 4XXXK.=X2XX.K #.&.4.&.O.| R L P !.                              ",
"                                                            g e 3X+XY.[.S., @.nXdXaXhXnXnX6.+ *                                 ",
"                                                            g e 3XL.<Xc.@ |.bXwX3 . h cXdXhXhXxX3 }                             ",
"                                                            g e 4XK.4X0.. aXbXwXX x 9XhXdXhXjX  5 `                             ",
"                                                            g e ,XOX;Xm.r O.9XvX` wXbXdXjXvXwX!.- $.                            ",
"                                                            g e 2XP.@XK.v.; x cXxXkXaXaXaXkXwX# + ~.                            ",
"                                                            g e 4XI.$XZ.,.t.G % xXmXcXxX3 E.    = b                             ",
"                                                            g e <XoXoX{.A.s.^ H ` m ] &.+ ; { L                                 ",
"                                                            b r <XI.+X+X$Xu.t.d.4 < ; + n K 8 2                                 ",
"                                                            l y 3XoXXX$XoXp.r.>.t.l.! +                                         ",
"                                                            n A -XoXXXoXI.P.h.( <.D K                                           ",
"                                                            b Z 4X+XXXoXI.@XD.M.K.< v                                           ",
"                                                            h A 5XXXXXP.I.oXoX$XeXr n                                           ",
"                                                            d 5 4XoXXXP.oXoXoXoX,Xq n                                           ",
"                                                          $.X.n.$XI.oXoXoXoXoX+X<XZ n                                           ",
"                                                          X b.tXK.I.oXoXXXoXXXXX4XV x                                           ",
"                                                          # 9.1XoXoXI.I.I.+XXX+X<Xq n                                           ",
"                                                          # 8.3XoXXXP.oXoXoXXX+X5X> a                                           ",
"                                                          # 8.4XoXXXP.XXP.P.oXoX@X5.W.                                          ",
"                                                          i c.%XoXoXoXP.P.P.oXXX[.xX  @                                         ",
"                                                        #   4XI.XXoXI.I.+XI.XXXXP.jX XO                                         ",
"                                  a z l g l l g g l p ' n.qX@XP.XXI.I.oXoXoXP.oXXXjX}.X                                         ",
"                                P 0 A C C C e C C e 0 x.tXP.P.+XoXI.oXK.B.P.oXoXK.eX.Xo.                                        ",
"                        M O + O 1.iX4X2X2X2X2X2X2X<X2X#XJ.oXP.OXoXoX+XC.e.F.oXoXI.C.uX  # 2.                                    ",
"                      O c.0.$ V.$XoXI.I.+X+X$XoXI.oXoXoXoXoXoX@XI.oXoXoXP.P.+XXXXXK.rXkX- /.                                    ",
"                    O.R 7Xm.O XX-XoX+XoXoXP.i.C.@XP.P.oXoX@XB.N.@XoXP.oX+XXXI.@XI.oX=XqX= _.                                    ",
"                    + 6XR.E u [.=XoXXXXX+XK.u.A.@X+XoXP.oXD.r.y.+XoXoXP.XX$XP.A.P.+XoXOX= `.                                    ",
"                    ; eX0 w yXOXP.oXoXXXP.L.I.oXXXoXoXI.K.r.( j.+XI.P.P.+XoXN.( P.oXY.I.* '.                                    ",
"                    ; ;Xf u 8X+Xh.k.$X+XP.oXoXXXXXoXXX$XD.( h.L.I.XXXX+XK.u.u.K.XXI.Y.I.= '.                                    ",
"                    $ 7XK y 2X=Xu.( N.K.oXXXoXXXoX@XP.@XK.N.I.Y.I.oXXX+XI.j.C.$XoXI.oXP.= }.                                    ",
"                    t >Xt y 5X@XB.r.) Z.$XOXoXI.K.D.oXI.oX+X@XoXP.XXoXoXoX@X@XP.I.I.$X$X= }.                                    ",
"                      $ @ ' 2XI.$XZ.) C.=XOXXXY.C.;.I.@XXXoXXXXXoXoXP.P.OX+XoXI.oXXX;X2X$ /.                                    ",
"                        p k ,XOXoXoXC.K.$XuX@XOXU.C.p.g.$XI.I.L.I.P.%XeXoXt.M.=X&XY./ 4                                         ",
"                        O.0 1X+XXXoX@X#XG.8.K.$X=X$Xk.C.:XoX+XXXoX$Xc.x.@Xh.h.[.L./ S b                                         ",
"                        n r ,XL.I.I.oXeX .# D.#XOXI.I.+XOXI.P.oXK.eXu * #X:XC.:.h.4 n                                           ",
"                        p 6 OXI.oXI.I.jX=.$ [.5XP.y.j.H w oX+XXX*XkX` : f.B.l.p.* _.                                            ",
"                          &.U F.*XI.K.xX^.$ i.D.i.>.h.V % $X+XK.+XcX] 4 s.T A I                                                 ",
"                            X S.-XI.P.cX!.$ :.>.>.<.g.U < oX+XL.L.xX} : e.r X 1                                                 ",
"                            % F.@XI.K.cX4.# y.h.d.t.A.H , $X=XP.oXxX+.# # a.Q 1                                                 ",
"                            * F.#X+XK.fX5.. 5 0 t F 4 * d oX+XL.XXuX` ; -.j.J 1                                                 ",
"                            * Z.T.+XoXx.W S q S 6 @ m i , ,X-X[.oX6Xc ; l.l.J #                                                 ",
"                            # F.%X@X@X- 6 Z.s.N.! #    X= P.P.=XoX%XG 5 h.i.H i                                                 ",
"                            X *XeX+X-X8 V g.d.V v       sX= 0.3XXX9 Y f.t.4 @.                                                  ",
"                              K x.2XY.8 V d.f.4 a         O w.6XD.# Y l.u.= 3.                                                  ",
"                              O I 6X5Xi Z s.l.B a         # q.tXP.$ T l.M.4 o.                                                  ",
"                              & E 6X+Xt A g.s.B M         $ w.6XP.% Y g.h.; 2.                                                  ",
"                                | X # gX0X+ + ~.            n X ; zX| # *                                                       ",
"                                  ).*.nXnX%.#.              `.#.W.nXpX%.Q.                                                      "
};
