/* XPM */
static char *result[] = {
/* columns rows colors chars-per-pixel */
"64 64 7 1 ",
"  c black",
". c #252525",
"X c #393737",
"o c #622900",
"O c #266200",
"+ c #933E00",
"@ c None",
/* pixels */
"@@@@@@@@@@@@@@@@@@@@@@@@@@@@@@@@@@@@@@@@@@@@@@@@@@@@@@@@@@@@@@@@",
"@@@@@@@@@@@@@@@@@@@@@@@@@@@@@@@@@@@@@@@@@@@@@@@@@@@@@@@@@@@@@@@@",
"@@@@@@@@@@@@@@@@@@@@@@@@@@@@@@@@@@@@@@@@@@@@@@@@@@@@@@@@@@@@@@@@",
"@@@@@@@@@@@@@@@@@@@@@@@@@@@@@@@@@@@@@@@@@@@@@@@@@@@@@@@@@@@@@@@@",
"@@@@........................................................@@@@",
"@@@@........................................................@@@@",
"@@@@........................................................@@@@",
"@@@@........................................................@@@@",
"@@@@....oooooooooooooooooooooooooooooooooooooooooooooooo....@@@@",
"@@@@....oooooooooooooooooooooooooooooooooooooooooooooooo....@@@@",
"@@@@....oooooooooooooooooooooooooooooOOooooooooooooooooo....@@@@",
"@@@@....oooooooooooooooooooooooooooooOOooooooooooooooooo....@@@@",
"@@@@....+++++++++++++++++++++++++++++OO+++++++++++++++++....@@@@",
"@@@@....+++++++++++++++++++++++++++++OO+++++++++++++++++....@@@@",
"@@@@....+++++++++OO++++++++++++++++++++OO+++++++++OO++++....@@@@",
"@@@@....+++++++++OO++++++++++++++++++++OO+++++++++OO++++....@@@@",
"@@@@....oooooooooOOoooooooooooooooooooooooooooooooOOoooo....@@@@",
"@@@@....oooooooooOOoooooooooooooooooooooooooooooooOOoooo....@@@@",
"@@@@....oooooooOOoooooooOOOOooooooooooooooooooooOOoooooo....@@@@",
"@@@@....oooooooOOoooooooOOOOooooooooooooooooooooOOoooooo....@@@@",
"@@@@....++++++++++++++++++OO++++++++++++++++++++++++++++....@@@@",
"@@@@....++++++++++++++++++OO++++++++++++++++++++++++++++....@@@@",
"@@@@....++++++++++++++++++++++++++++++++++++++++++++++++....@@@@",
"@@@@....++++++++++++++++++++++++++++++++++++++++++++++++....@@@@",
"@@@@....oooooooooooooooooooooooooooooooooooooooooooooooo....@@@@",
"@@@@....oooooooooooooooooooooooooooooooooooooooooooooooo....@@@@",
"@@@@....oooooooooooooooooooooooooooOOoooooooOOoooooooooo....@@@@",
"@@@@....oooooooooooooooooooooooooooOOoooooooOOoooooooooo....@@@@",
"@@@@....+++++OO++++++++++++++++  ++++OO+++++++OO++++++++....@@@@",
"@@@@....+++++OO++++++++++++++++  ++++OO+++++++OO++++++++....@@@@",
"@@@@....+++++OO++++++++++++++.    .+++++++++++OO++++++++....@@@@",
"@@@@....+++++OO++++++++++++++.    .+++++++++++OO++++++++....@@@@",
"@@@@....oooOOooooooooooooooooXX  XXooooooooooooooooooooo....@@@@",
"@@@@....oooOOooooooooooooooo..X  X..oooooooooooooooooooo....@@@@",
"@@@@....oooooooooooOOooooooX..oooo..Xooooooooooooooooooo....@@@@",
"@@@@....oooooooooooOOooooo..XooooooX..oooooooooooooooooo....@@@@",
"@@@@....+++++++++OO++++++X..++++++++..X+++++++++++++++++....@@@@",
"@@@@....+++++++++OO++++++XX++++++++++XX+++++++++++++++++....@@@@",
"@@@@....+++++++++OO++++++..++++++++++..+++++++OOOO++++++....@@@@",
"@@@@....+++++++++OO++++++..++++++++++..+++++++OOOO++++++....@@@@",
"@@@@....oooooooooooooooooXXooooooooooXXoooooOOoooooooooo....@@@@",
"@@@@....oooooooooooooooooX..oooooooo..XoooooOOoooooooooo....@@@@",
"@@@@....oooooooooooooooooo..XooooooX..oooooooooooooooooo....@@@@",
"@@@@....oooooooooooooooooooX..oooo..Xooooooooooooooooooo....@@@@",
"@@@@....++++++++++++++++++++..X..X..++++++++++++++++++++....@@@@",
"@@@@....+++++++++++++++++++++XX..XX+++++++++++++++++++++....@@@@",
"@@@@....+++++OO+++++++++++++++++++++++++OO++++++++++++++....@@@@",
"@@@@....+++++OO+++++++++++++++++++++++++OO++++++++++++++....@@@@",
"@@@@....oooOOoooooooooooOOooooooooooooOOoooooooooOOOOooo....@@@@",
"@@@@....oooOOoooooooooooOOooooooooooooOOoooooooooOOOOooo....@@@@",
"@@@@....oooOOoooooooooooooOOoooooooooooooooooooOOooooooo....@@@@",
"@@@@....oooOOoooooooooooooOOoooooooooooooooooooOOooooooo....@@@@",
"@@@@....++++++++++++++++++OO++++++++++++++++++++++++++++....@@@@",
"@@@@....++++++++++++++++++OO++++++++++++++++++++++++++++....@@@@",
"@@@@....++++++++++++++++++++++++++++++++++++++++++++++++....@@@@",
"@@@@....++++++++++++++++++++++++++++++++++++++++++++++++....@@@@",
"@@@@........................................................@@@@",
"@@@@........................................................@@@@",
"@@@@........................................................@@@@",
"@@@@........................................................@@@@",
"@@@@@@@@@@@@@@@@@@@@@@@@@@@@@@@@@@@@@@@@@@@@@@@@@@@@@@@@@@@@@@@@",
"@@@@@@@@@@@@@@@@@@@@@@@@@@@@@@@@@@@@@@@@@@@@@@@@@@@@@@@@@@@@@@@@",
"@@@@@@@@@@@@@@@@@@@@@@@@@@@@@@@@@@@@@@@@@@@@@@@@@@@@@@@@@@@@@@@@",
"@@@@@@@@@@@@@@@@@@@@@@@@@@@@@@@@@@@@@@@@@@@@@@@@@@@@@@@@@@@@@@@@"
};
