/* XPM */
static char *cdb810e1babc4541e11244a88ba63813e92JjInCooDeiCKy[] = {
/* columns rows colors chars-per-pixel */
"64 64 36 1 ",
"  c #4E6722",
". c #4A6020",
"X c #353816",
"o c #373C17",
"O c #60592C",
"+ c #746B3C",
"@ c #766F3D",
"# c #625D2D",
"$ c #5E6141",
"% c #727351",
"& c #444D1D",
"* c #6F6E33",
"= c #837F43",
"- c #81793E",
"; c #4D4B23",
": c #4E5B32",
"> c #5C5F29",
", c #5A5925",
"< c #6D682E",
"1 c #616A3C",
"2 c #364926",
"3 c #4F4E24",
"4 c #434718",
"5 c #2B371C",
"6 c #2D3A1D",
"7 c #4C8140",
"8 c #757B4C",
"9 c #706730",
"0 c #45461A",
"q c #5D5926",
"w c #847940",
"e c #4B5237",
"r c #33402B",
"t c #466F4A",
"y c #68892D",
"u c #657D24",
/* pixels */
" ...  ...............  .  ..................  . ............... ",
"  .  XXXXXXX.........XXXXXXX.........XXXXXXX.........XXXXXXX... ",
"  . oO+++++OX.......XO+++++OX.......XO+++++OX.......XO+++++OX.. ",
"  .XO++OOO@+OX. ...XO++OOO++Oo ....o#@+OOO++OX.....X$%%OO$%+OX..",
"...XO++OOO@@OX  ...&*=+OO*++OX  .. o#++OOO-+OX.....XO%%O$$++OX..",
"...X;O++++@#:X  ...X>*=+==+O;X   . o,<++---O;X..  .X;#++%%+O;X..",
"...XX;1OOO1:2X.....XX>*O**O;XXXooXXXX,<O<<O;XXXXXooXo3OOOOO;XX..",
"....XX222X22X.......XXXXXXXXX+++++++X44XXXXXX++++@@+XXXXXXXXX...",
". ..X;;1:OO;X..... .X;3#;OO;X;OO;;;OX;3#;OO3o3OO;;;OX;;O;OO;X...",
"  ..X;O+++O;X.....  X3#+++O;XO;;;;OOX;O@@+#3oO;;;;OOX;O+++O;o ..",
"  ..X3X+++X3X...... X3o+++X;X;;;OO;OX;X+++o3X;;;OO;OX;X+++X;X  .",
" ..5X3o@++o3X5.....5X;X+++X;XXXXXXXXX;X+++X;XXXXXXXXX;X+++X;X6 .",
"...5X;o@+@o3X5.....5X;X+++X;X5.....5X;X+++X;X5.....5X;X+++X;X6 .",
"..555XX++@oX555...555XX+++Xo665.. 655XX+++XX555...555XX+++XX555.",
"....55X+++X55.......55X+++X56  .  ..55X+++X55.......55X+++X55...",
".....5X+++X5........ 5X+++X5.  .  ...5X+++o6 ... ....5X+++X5....",
"......X+++X...  ..   .X+++X...........X+++X   .  .....X+++X.....",
".....XXXXXXX...  .  .XXXXXXX.........XXXXXXX  .......XXXXXXo....",
"....XO+++++OX... ...XO+++++OX.......XO+++++OX.......X#@+++@#X...",
".. o#++OOO@+OX.....XO++OOO++OX.. .721++O1O++OX.....XO+@#O#@@OX..",
"...o#@@O##@+OX.....XO++O<<-@OX.  ..218+11O++OX.....XO++#O#@+OX..",
"...X3#@+@@+O;X.....4;O+---@#3X   ..X:1+8+@@O;X.....X;O+++++O;X..",
"...XX;OOOOO;XX.. ..44,O<<OO3oXooXXXXo3#O##O;XXXXXXXXX;OO9OO;XX..",
"....XXXXXXXXX...  ..44oXXXXXX+++++++XooXooXXX+++++++XXX00XXXX...",
"....X;;O;OO;X...   .o3;O;OO;X;OO;;;OX;;O;OO;X;OO;;q90;q9qOO;X...",
"....X;O++=*>X....  .X;O+++O;XO;;;;OOX;O+++O;XO;;;;O90;9w++O;X...",
"....&>&+==&;X.......X;X+++X;X;;;OO;OX;X+++X;X;3;OO;#o;X+++X;o...",
"...5X>&+==X;X5.....5X;X+++X;XXXXXXXXX;X+++X;XXoooXooo;X+++X;o6..",
"   5X;X+++X;X5.....5X;X+++X;X5.....6o;X+@@X;X5.  . 6X;X+++X;o6 .",
"  555XX+++XX555...555XX+++XX555...556oX@@+XX555...555XX+++XX566.",
"....55X+++X55.......55X++@X55. .....66X@@+X55.......55X+++X55...",
".....5X+++o6  ...   .5X++@o5.  ......5X+++X5.........5X+++X5....",
"......X+++X    .   ...X++@o .  .......X+++X...........X+++X.....",
".....XXXXXXX.  .  ...XXXXXoo.........XXXXXXX.........XXXXXXX....",
"..  oO+++++OX.......XO+++++OX.......XO+++++OX.......XO+++++OX ..",
".  oO++OOO++OX.....XO++OOO++OX.....XO++OOO++OX.....X#++OOO++Oo .",
".  XO++OOO++OX.....XO++OOO++OX.....XO++OOO++#o ....o#++OOO++OX  ",
"...X;O+++++O;X.....X;O+@+++O;X.....X;O+++++O;o   . o3O+++++O;X  ",
"....X;OOOOO;X...   oX;##OOO;XXXXX&XXX;OOOOO;XXoooXooX;OOOOO;XX..",
"....XXXXXX22X...77  oXooXXXXX++++==+X&&&XXXXX+++++++XXXXXXXXX...",
"....X;;O;OO:27.77.. o;;O;OO;o;OO;>>*X>>O;OO;X;OO;;;OX;;O;OOert..",
"....X;OOO;O:27.77...X;OOO;O;o#3;;3**X;OOO;O;XO;;;;OOXe$$O;$er...",
"....X3OOO;#;27......X;OOO;O;X333O#3OX;OOO;O;X;;;OO;OX;$$$;$eX...",
"...5X3#;O##;X5.....5X;O;OOO;XXooXXXXX;O3OOO;ooXXXXXXX;Oe$O#3o5..",
"...5X33oO#3;X5.....5X;;XOO;;X5.....5X;;o#O;3o5.....5X33XO#33X5..",
"..555X3o;X;X555...555X;X;X;X555...555X;o3o;o655...555X3o;o3X555.",
"....555555555.......555555555.......555566555.......556655555...",
".....5.....5...... ..5.....5.........5.....5.........5.....5....",
"..................   ...........................................",
".....XXXXXXX......   XXoooXX.........XXXXXXX.........XXXXXXX....",
"....XO+++++OX...... oO@@@++OX.......XO+++++Oo.......XO+++++OX...",
"...XO++OOO++OX.....XO+@#OO++OX....yXO++OOO++127..  XO++OOO++OX..",
".y.XO@=*OO++OX.....XO++OOO@+*X..yyyXO++11O+812 .  .XO++OOOw+OX..",
".yy&;*=+++@O;X.....X,O++++@#>&y.yy X;O++88+1:o .  .0q9++wwwO;X..",
"..yyX>*#O##;4uu...u44;OOOOO3o&&oooXXX;OO11O;XooXXXXX0q9O99O;XX. ",
"....XXooXXXXXuuu.uuuXXXXXXXXo@+@@+++XXXXXXXXX+++++++X00XoXXXX.  ",
"....X;;O;OO;X.uu.uu.X;;O;OO;X;OO;;;OX;;O;OO;X;OO;;;OX;;O3##;X   ",
"....X;OOO;O3o ...   X;OOO;O;XO;;;;OOo;OOO3#3XO;;;;OOX;OOO3#3X  .",
"....X;OOO;O;o  .   .X;OOO;O;X;;;OO;Oo3OO#3#;X;;;OO;OX;OOO;#3X...",
"...5X;O;OOO;X6 .  .5X;O;OOO;XXXXXXXXo3#;##O;XXXXXXXXX;O;OOO;X5..",
"...5X;;XOO;;X5.....5X;;XOO;;X5.....5X33XOO;;X5....55X;;XOO;;X5..",
"..555X;X;X;X555...555X;X;X3X555...555X;X;X;X555...555X;X;X;X555.",
"....565555555...... 665556655.......555555666...  ..555555555...",
".... 6.....5........ 6 .   5.........5.....6  .  ....5.....5... "
};
